<svg width="138" height="163" viewBox="0 0 138 163" fill="none" xmlns="http://www.w3.org/2000/svg">
<path d="M135.684 48.3203L88.9453 1.60156C87.9102 0.566407 86.5234 0 85.0586 0H2.75391C1.23047 0 0 1.23047 0 2.75391V159.277C0 160.801 1.23047 162.031 2.75391 162.031H134.57C136.094 162.031 137.324 160.801 137.324 159.277V52.207C137.305 50.7617 136.719 49.3555 135.684 48.3203ZM125.352 148.828H11.9531V13.1836H85.4687V53.0273H125.352V148.828Z" fill="white"/>
<path d="M103.129 68.0469L91.6836 120.488H78.3437L70.2383 86.875C69.7695 85.1367 69.4375 83.1445 69.2813 80.918C69.125 83.457 68.8125 85.4492 68.3242 86.875L59.75 120.488H45.9219L34.4766 68.0469H46.625L52.6016 103.086C52.7578 103.887 52.9141 105.391 53.0703 107.617C53.0703 107.148 53.1484 107.695 53.3047 109.277H53.5391C53.6953 107.363 54.0078 105.312 54.4961 103.086L62.6016 68.0469H75.2383L83.8125 103.555C83.8125 103.867 83.8906 104.355 84.0469 104.98C84.3594 106.738 84.5156 108.164 84.5156 109.277H84.75C85.0625 106.895 85.2969 104.902 85.4727 103.32L91.2148 68.0469H103.129Z" fill="white"/>
</svg>
