<svg width="440" height="440" viewBox="0 0 440 440" fill="none" xmlns="http://www.w3.org/2000/svg">
<rect width="440" height="440" rx="220" fill="white"/>
<path d="M361.466 266.5C361.057 265.886 360.546 265.374 359.933 264.862C356.153 261.584 356.459 257.795 357.072 255.644C357.685 253.493 358.094 251.342 358.196 249.089C358.503 237.925 352.576 229.834 347.876 225.225C345.424 222.87 342.563 221.026 339.396 219.592C326.624 213.652 331.119 199.518 333.061 194.499C333.367 193.68 332.754 192.86 331.937 193.065C324.171 194.192 318.96 197.367 316.508 199.211C315.486 199.927 313.954 199.313 313.852 198.084C313.647 195.728 314.158 192.451 314.567 190.505C314.771 189.788 314.056 189.071 313.341 189.071C288.103 191.836 273.186 208.326 268.894 213.857C268.179 214.778 266.851 214.778 266.033 213.857C216.171 153.736 146.181 178.522 131.672 184.667C130.752 185.077 129.832 184.052 130.343 183.233C149.552 146.669 171.827 126.083 194.306 115.636L214.128 79.9936L209.428 109.9C237.73 102.014 265.318 108.159 286.571 116.762L300.262 100.682L293.314 119.63C307.312 125.98 317.734 132.945 322.639 136.529C325.908 138.885 329.791 140.114 333.674 139.909C339.498 139.602 342.154 136.12 343.483 132.33C345.118 127.414 344.096 122.088 340.928 117.889C340.826 117.787 340.724 117.684 340.622 117.582L325.193 126.492L336.739 112.768C327.135 101.604 315.384 93.1034 303.941 86.7534C292.599 80.4033 280.44 75.692 267.975 72.517L250.094 98.122L257.348 70.1613C243.452 67.6008 229.148 66.8839 214.945 68.0105C203.399 68.9323 192.875 70.8783 183.168 73.5412L183.475 89.4163L177.753 75.1799C119.104 93.9228 93.9685 142.47 83.9552 171.864C79.5616 184.769 77.1094 198.186 76.8029 211.808C73.0224 358.678 210.858 371.481 232.009 372.505C233.03 372.505 233.541 371.379 232.826 370.662C196.247 332.869 201.253 319.349 205.341 315.15C206.464 314.023 208.304 314.023 209.53 315.15C261.742 362.775 299.343 359.703 308.436 358.064C309.458 357.859 310.071 356.732 309.56 355.708C281.564 301.118 320.084 295.793 320.084 295.793C370.151 285.448 364.327 270.597 361.466 266.5ZM342.257 244.173C341.95 246.324 340.213 247.962 338.067 248.372C334.696 248.884 331.835 246.016 332.346 242.637C332.652 240.486 334.389 238.847 336.535 238.437C339.907 237.925 342.768 240.793 342.257 244.173Z" fill="#439BF4"/>
</svg>
